<svg xmlns="http://www.w3.org/2000/svg" width="64" height="64" viewBox="0 0 64 64" fill="none">
  <rect width="64" height="64" rx="16" fill="#E3232C" fill-opacity="0.1"/>
  <g transform="translate(20 20)" stroke="#E3232C" stroke-width="2" stroke-linecap="round" stroke-linejoin="round">
    <path d="M20 13c0 5-3.5 7.5-7.66 8.95a1 1 0 0 1-.67-.01C7.5 20.5 4 18 4 13V6a1 1 0 0 1 1-1c2 0 4.5-1.2 6.24-2.72a1.17 1.17 0 0 1 1.52 0C14.51 3.81 17 5 19 5a1 1 0 0 1 1 1z"/>
    <path d="m9 12 2 2 4-4"/>
  </g>
  <circle cx="56" cy="8" r="10" fill="#E3232C"/>
  <text x="56" y="13" text-anchor="middle" font-family="Space Grotesk, sans-serif" font-size="13" font-weight="700" fill="#FFFFFF">3</text>
</svg>
